<?xml version="1.0" ?><svg viewBox="0 0 64 64" xmlns="http://www.w3.org/2000/svg"><defs><style>.cls-1{fill:none;}.cls-1,.cls-4,.cls-5,.cls-6,.cls-7,.cls-8{stroke:#4c241d;stroke-linecap:round;stroke-linejoin:round;stroke-width:2px;}.cls-2{fill:#d2ddff;}.cls-3{fill:#4c241d;}.cls-4{fill:#6b4f5b;}.cls-5{fill:#b5a19c;}.cls-6{fill:#9dc1e4;}.cls-7{fill:#fff;}.cls-8{fill:#a9ba5a;}</style></defs><g id="positive-magnify"><circle class="cls-1" cx="26" cy="52" r="2"/><circle class="cls-2" cx="35.5" cy="27.5" r="22.5"/><circle class="cls-3" cx="46.74" cy="3.99" r="1.07"/><circle class="cls-3" cx="52" cy="26" r="1"/><line class="cls-1" x1="51.59" x2="54.41" y1="13.59" y2="16.41"/><line class="cls-1" x1="54.41" x2="51.59" y1="13.59" y2="16.41"/><rect class="cls-4" height="16.21" transform="translate(-18.34 44.27) rotate(-45)" width="4.24" x="42.15" y="36.16"/><path class="cls-5" d="M50.2,45.24h7.07a0,0,0,0,1,0,0V58.7a3.54,3.54,0,0,1-3.54,3.54h0A3.54,3.54,0,0,1,50.2,58.7V45.24a0,0,0,0,1,0,0Z" transform="translate(-22.26 53.74) rotate(-45)"/><circle class="cls-6" cx="25.81" cy="25.81" r="20"/><circle class="cls-7" cx="25.81" cy="25.81" r="16"/><line class="cls-1" x1="50" x2="48.5" y1="51" y2="52.5"/><line class="cls-1" x1="52" x2="50.5" y1="53" y2="54.5"/><line class="cls-1" x1="54" x2="52.5" y1="55" y2="56.5"/><line class="cls-1" x1="56" x2="54.5" y1="57" y2="58.5"/><polygon class="cls-8" points="24.4 35.23 16 26 21 26 23.6 28.77 29.23 18 34 18 24.4 35.23"/></g></svg>