<svg viewBox="0 0 64 64" xmlns="http://www.w3.org/2000/svg"><defs><style>.cls-1{fill:none;stroke:#4c241d;stroke-linecap:round;stroke-linejoin:round;stroke-width:2px}.cls-3{fill:#4c241d}</style></defs><g id="positive-magnify"><circle class="cls-1" cx="26" cy="52" r="2"/><circle cx="35.5" cy="27.5" r="22.5" fill="#d2ddff"/><circle class="cls-3" cx="46.74" cy="3.99" r="1.07"/><circle class="cls-3" cx="52" cy="26" r="1"/><path class="cls-1" d="M51.59 13.59l2.82 2.82m0-2.82l-2.82 2.82"/><path fill="#6b4f5b" stroke="#4c241d" stroke-linecap="round" stroke-linejoin="round" stroke-width="2" d="M37.034 40.034l2.998-2.998 11.462 11.462-2.998 2.999z"/><path d="M45.226 50.233l5-5h0l9.517 9.518a3.54 3.54 0 010 5.006h0a3.54 3.54 0 01-5-.007l-9.517-9.517h0z" fill="#b5a19c" stroke="#4c241d" stroke-linecap="round" stroke-linejoin="round" stroke-width="2"/><circle cx="25.81" cy="25.81" r="20" fill="#9dc1e4" stroke="#4c241d" stroke-linecap="round" stroke-linejoin="round" stroke-width="2"/><circle cx="25.81" cy="25.81" r="16" fill="#fff" stroke="#4c241d" stroke-linecap="round" stroke-linejoin="round" stroke-width="2"/><path class="cls-1" d="M50 51l-1.5 1.5m3.5.5l-1.5 1.5m3.5.5l-1.5 1.5m3.5.5l-1.5 1.5"/><path fill="#a9ba5a" stroke="#4c241d" stroke-linecap="round" stroke-linejoin="round" stroke-width="2" d="M24.4 35.23L16 26h5l2.6 2.77L29.23 18H34l-9.6 17.23z"/></g></svg>